<svg width="24" height="24" viewBox="0 0 24 24" fill="none" xmlns="http://www.w3.org/2000/svg">
  <path d="M18 8C19.6569 8 21 6.65685 21 5C21 3.34315 19.6569 2 18 2C16.3431 2 15 3.34315 15 5C15 5.12548 15.0077 5.24917 15.0227 5.37061L8.0827 9.26727C7.543 8.48854 6.6049 8 5.5 8C4.11929 8 3 9.11929 3 10.5C3 11.8807 4.11929 13 5.5 13C6.6049 13 7.543 12.5115 8.0827 11.7327L15.0227 15.6294C15.0077 15.7508 15 15.8745 15 16C15 17.6569 16.3431 19 18 19C19.6569 19 21 17.6569 21 16C21 14.3431 19.6569 13 18 13C16.8951 13 15.957 13.4885 15.4173 14.2673L8.4773 10.3706C8.4923 10.2492 8.5 10.1255 8.5 10C8.5 9.87452 8.4923 9.75083 8.4773 9.62939L15.4173 5.73273C15.957 6.51146 16.8951 7 18 7Z" stroke="currentColor" stroke-width="2" stroke-linecap="round" stroke-linejoin="round"/>
</svg>
